{"title":"The 5th Wave 2016 Movies HDRip XViD AAC New Source +Sample ☻rDX☻","uid":14185696,"size":740158844,"categoryP":"video","categoryS":"movies","magnet":"?xt=urn:btih:3ac462422be774257f42180e459a6a7f15e3e72a&amp;dn=The+5th+Wave+2016+Movies+HDRip+XViD+AAC+New+Source+%2BSample+%E2%98%BBrDX%E2%98%BB&amp;tr=udp%3A%2F%2Ftracker.leechers-paradise.org%3A6969&amp;tr=udp%3A%2F%2Fzer0day.ch%3A1337&amp;tr=udp%3A%2F%2Fopen.demonii.com%3A1337&amp;tr=udp%3A%2F%2Ftracker.coppersurfer.tk%3A6969&amp;tr=udp%3A%2F%2Fexodus.desync.com%3A6969","seeders":0,"leechers":3,"uploader":"basicssom","files":2,"time":1459833182,"description":"----------------------------------------------------------------\r\nThe 5th Wave 2016 English Movies HDRip XViD AAC New Source with Sample ~ ☻rDX☻\r\n\r\nSCREEN SHOTS &amp; POSTER:\r\n  \nhttp://mobileshosting.com/2016/4/buy/index.htm  \nhttp://mobileshosting.com/2016/4/buy/1.html  \nhttp://mobileshosting.com/2016/4/buy/2.html  \nhttp://mobileshosting.com/2016/4/buy/3.html  \nhttp://mobileshosting.com/2016/4/buy/4.html  \nhttp://mobileshosting.com/2016/4/buy/5.html  \nhttp://mobileshosting.com/2016/4/buy/6.html  \nhttp://mobileshosting.com/2016/4/buy/7.html  \nhttp://mobileshosting.com/2016/4/buy/8.html  \nhttp://mobileshosting.com/2016/4/buy/9.html  \nhttp://mobileshosting.com/2016/4/buy/10.html\r\n\r\nFormat                                   : Matroska\r\nFormat version                           : Version 4 / Version 2\r\nFile size                                : 694 MiB\r\nDuration                                 : 1h 52mn\r\nOverall bit rate                         : 863 Kbps\r\nMovie name                               : The 5th Wave 2016 English Movies HDRip XViD AAC New Source ☻rDX☻\r\n\r\nVideo\r\nID                                       : 1\r\nFormat                                   : MPEG-4 Visual\r\nFormat profile                           : Advanced   \r\nFormat settings, BVOP                    : Yes\r\nFormat settings, QPel                    : No\r\nFormat settings, GMC                     : No warppoints\r\nFormat settings, Matrix                  : Default (H.263)\r\nCodec ID                                 : V_MS/VFW/FOURCC / XVID\r\nCodec ID/Hint                            : XviD\r\nDuration                                 : 1h 52mn\r\nBit rate                                 : 734 Kbps\r\nWidth                                    : 640 pixels\r\nHeight                                   : 272 pixels\r\nDisplay aspect ratio                     : 2.35:1\r\nFrame rate mode                          : Constant\r\nFrame rate                               : 23.976 fps\r\nColor space                              : YUV\r\nChroma subsampling                       : 4:2:0\r\nBit depth                                : 8 bits\r\nScan type                                : Progressive\r\nCompression mode                         : Lossy\r\nBits/(Pixel*Frame)                       : 0.176\r\nStream size                              : 590 MiB (85%)\r\nTitle                                    : ☻rDX☻\r\nWriting library                          : XviD 65\r\nDefault                                  : Yes\r\nForced                                   : No\r\n\r\nAudio\r\nID                                       : 2\r\nFormat                                   : MPEG Audio\r\nFormat version                           : Version 1\r\nFormat profile                           : Layer 3\r\nMode                                     : Joint stereo\r\nMode extension                           : MS Stereo\r\nCodec ID                                 : A_MPEG/L3\r\nCodec ID/Hint                            : MP3\r\nDuration                                 : 1h 52mn\r\nBit rate mode                            : Constant\r\nBit rate                                 : 112 Kbps\r\nChannel(s)                               : 2 channels\r\nSampling rate                            : 48.0 KHz\r\nCompression mode                         : Lossy\r\nStream size                              : 90.0 MiB (13%)\r\nTitle                                    : ☻rDX☻\r\nWriting library                          : LAME3.99r\r\nEncoding settings                        : -m j -V 4 -q 3 -lowpass 15.6 -b 112\r\nDefault                                  : Yes\r\nForced                                   : No\r\n\r\nIMDB \nhttp://www.imdb.com/title/tt2304933/","torrent":{"xt":"urn:btih:3ac462422be774257f42180e459a6a7f15e3e72a","amp;dn":"The+5th+Wave+2016+Movies+HDRip+XViD+AAC+New+Source+%2BSample+%E2%98%BBrDX%E2%98%BB","amp;tr":["udp%3A%2F%2Ftracker.leechers-paradise.org%3A6969","udp%3A%2F%2Fzer0day.ch%3A1337","udp%3A%2F%2Fopen.demonii.com%3A1337","udp%3A%2F%2Ftracker.coppersurfer.tk%3A6969","udp%3A%2F%2Fexodus.desync.com%3A6969"],"infoHash":"3ac462422be774257f42180e459a6a7f15e3e72a","infoHashBuffer":{"type":"Buffer","data":[58,196,98,66,43,231,116,37,127,66,24,14,69,154,106,127,21,227,231,42]},"announce":[],"urlList":[]}}